<?xml version="1.0" encoding="UTF-8" standalone="no"?>
<!-- Created with Inkscape (http://www.inkscape.org/) -->

<svg
   xmlns:dc="http://purl.org/dc/elements/1.1/"
   xmlns:cc="http://creativecommons.org/ns#"
   xmlns:rdf="http://www.w3.org/1999/02/22-rdf-syntax-ns#"
   xmlns:svg="http://www.w3.org/2000/svg"
   xmlns="http://www.w3.org/2000/svg"
   version="1.1"
   width="66.079941"
   height="69.999939"
   viewBox="-3.5 -3.5 66.079998 69.99994"
   id="Layer_1"
   xml:space="preserve"><metadata
     id="metadata4267"><rdf:RDF><cc:Work
         rdf:about=""><dc:format>image/svg+xml</dc:format><dc:type
           rdf:resource="http://purl.org/dc/dcmitype/StillImage" /><dc:title></dc:title></cc:Work></rdf:RDF></metadata><defs
     id="defs4265" /><filter
     color-interpolation-filters="sRGB"
     id="googleDropShadow"><feOffset
       id="feOffset4205"
       dy="0.5"
       dx="0.3"
       in="SourceGraphic"
       result="offOut" /><feGaussianBlur
       id="feGaussianBlur4207"
       in="offOut"
       result="blurOut"
       stdDeviation="0.25" /><feColorMatrix
       id="feColorMatrix4209"
       values="1 0 0 0 0 0 1 0 0 0 0 0 1 0 0 0 0 0 .8 0"
       in="blurOut"
       result="blurTransOut"
       type="matrix" /><feBlend
       in2="blurTransOut"
       mode="normal"
       in="SourceGraphic"
       id="feBlend4211" /></filter><g
     transform="matrix(0.39829304,0,0,0.39829304,-3.7206543,-3.8485362)"
     id="g4249"><polygon
       points="83.331,176.625 153.4,137.792 166.462,29.46 83.243,0.875 0.554,29.975 13.621,138.311 "
       id="polygon4251"
       style="fill:#b3b3b3" /><polygon
       points="83.05,10.089 83.05,167.471 146.041,132.609 158.214,35.721 "
       id="polygon4253"
       style="fill:#a6120d" /><polygon
       points="21.03,133.072 83.049,167.471 83.049,10.086 9.833,36.183 "
       id="polygon4255"
       style="fill:#dd1b16" /><path
       d="m 103.74,93.871 -20.69,9.675 H 61.243 L 50.992,129.186 31.925,129.539 83.05,15.804 103.74,93.871 z M 101.74,89 83.187,52.271 67.969,88.368 h 15.08 L 101.74,89 z"
       id="path4257"
       style="fill:#f2f2f2" /><polygon
       points="107.062,103.546 118.285,129.543 136.529,129.881 83.049,15.804 83.186,52.271 100.454,88.396 83.088,88.396 83.049,103.523 "
       id="polygon4259"
       style="fill:#b3b3b3" /></g></svg>