<?xml version="1.0" encoding="UTF-8" standalone="no"?>
<!-- Created with Inkscape (http://www.inkscape.org/) -->

<svg
   xmlns:dc="http://purl.org/dc/elements/1.1/"
   xmlns:cc="http://creativecommons.org/ns#"
   xmlns:rdf="http://www.w3.org/1999/02/22-rdf-syntax-ns#"
   xmlns:svg="http://www.w3.org/2000/svg"
   xmlns="http://www.w3.org/2000/svg"
   version="1.1"
   width="51.920441"
   height="70.000061"
   id="svg2"
   xml:space="preserve"><metadata
     id="metadata8"><rdf:RDF><cc:Work
         rdf:about=""><dc:format>image/svg+xml</dc:format><dc:type
           rdf:resource="http://purl.org/dc/dcmitype/StillImage" /><dc:title></dc:title></cc:Work></rdf:RDF></metadata><defs
     id="defs6" /><g
     transform="matrix(1.25,0,0,-1.25,-64.587375,181.26512)"
     id="g10"><g
       transform="scale(0.1,0.1)"
       id="g12"><path
         d="m 543.51996,1314.0118 c 0,0 9.59067,-36.9895 10.95795,-49.3199 1.37262,-12.3287 -24.6593,-39.7278 -24.6593,-53.429 0,-13.7012 5.47412,-38.3603 35.61674,-50.6924 30.14345,-12.3304 34.24996,-43.8384 34.24996,-63.0228 0,-19.1793 -10.95727,-56.1655 -10.95727,-56.1655 0,0 -6.84809,-91.78925 30.13994,-108.22867 36.98619,-16.43775 28.76982,-16.43775 36.98619,-16.43775 8.21804,0 68.50093,-24.66581 104.118,-15.07515 35.62042,9.592 45.20423,20.54827 45.20423,20.54827 0,0 35.62376,-2.73488 46.58338,28.77651 10.96295,31.50639 17.81021,97.26409 13.69951,127.40639 -4.11069,30.1439 -9.58882,69.8667 15.06864,83.5695 24.66414,13.7012 50.69239,30.1356 46.5817,43.8368 -4.11069,13.7012 -26.02658,32.8839 -26.02658,32.8839 0,0 -5.48147,34.2463 -1.37413,42.4676 4.10735,8.2214 28.76983,28.7749 15.06864,43.8418 -13.69451,15.067 -38.36032,15.067 -38.36032,15.067 l -31.50639,-2.7366 c 0,0 -53.42895,47.9475 -123.299,45.2076 -69.8667,-2.7399 -113.71184,-45.2076 -113.71184,-45.2076 0,0 -23.28584,8.2214 -43.83796,0 -20.55128,-8.2213 -24.64893,0 -20.54209,-23.29"
         id="path14"
         style="fill:#f8a00f;fill-opacity:1;fill-rule:nonzero;stroke:none" /><path
         d="m 668.70112,1110.037 c 0,0 -27.12989,-41.4831 -47.02971,-70.9199 -3.07926,-4.5537 19.89982,-4.8697 19.89982,-4.8697 l 27.12989,75.7896"
         id="path16"
         style="fill:#e67a17;fill-opacity:1;fill-rule:nonzero;stroke:none" /><path
         d="m 681.61829,1196.0422 c 0,0 -8.17625,-20.403 -12.65805,-31.2189 -4.86296,-11.7587 -23.40202,-17.6079 -23.40202,-17.6079 0,0 9.60888,10.0803 9.60888,35.6154 0,10.7155 13.83158,14.9733 13.83158,14.9733 l 12.61961,-1.7619"
         id="path18"
         style="fill:#e67a17;fill-opacity:1;fill-rule:nonzero;stroke:none" /><path
         d="m 673.35679,1184.5058 c 0,0 -16.75538,-19.9449 -47.86557,-8.7747 -31.11788,11.1669 -34.3078,51.0619 -34.3078,62.2321 0,11.1686 59.03882,-11.1702 67.01948,-15.958 7.98065,-4.7877 23.1312,-23.9336 15.15389,-37.4994"
         id="path20"
         style="fill:#e67a17;fill-opacity:1;fill-rule:nonzero;stroke:none" /><path
         d="m 555.83816,1397.6315 c 0,0 28.71984,5.5885 47.8659,-9.5721 19.15425,-15.1555 24.73268,-27.1265 24.73268,-27.1265 l -32.27285,-25.5836 c 0,0 -15.59388,7.2301 -20.38094,27.9758 -4.78722,20.744 -1.59462,30.3161 -19.94479,34.3064"
         id="path22"
         style="fill:#e67a17;fill-opacity:1;fill-rule:nonzero;stroke:none" /><path
         d="m 664.97994,1242.1174 c -12.36551,17.5527 -32.74344,25.2091 -49.01402,26.4796 -27.7439,2.1698 -40.91433,-7.6397 -40.91433,-7.6397 0,0 45.43626,-1.9241 58.5323,-19.1241 24.38163,-32.0146 59.94855,-34.6141 65.63397,-27.5846 -6.57643,-0.3277 -13.81152,2.9305 -21.5548,10.2541 -4.83787,4.5805 -8.75966,12.0429 -12.68312,17.6147"
         id="path24"
         style="fill:#e67a17;fill-opacity:1;fill-rule:nonzero;stroke:none" /><path
         d="m 588.27818,1180.0524 c 0,0 -50.41271,17.3305 -40.83175,34.8799 9.57245,17.5561 1.95254,27.1182 1.95254,27.1182 0,0 -28.14912,-21.0132 -20.97589,-43.3503 4.40775,-13.7113 11.80315,-23.6378 52.4134,-42.67 19.47906,-36.1804 4.02192,-101.3045 4.94921,-101.6104 1.54297,-0.5133 27.34838,12.755 25.58642,73.6831 -0.53661,18.7096 -2.03278,44.2514 -23.09393,51.9495"
         id="path26"
         style="fill:#e67a17;fill-opacity:1;fill-rule:nonzero;stroke:none" /><path
         d="m 654.33962,1366.4127 c -21.13855,-10.739 -50.09728,-25.6939 -50.09728,-25.6939 l 11.3976,-5.7022 c -1.08827,-1.7619 -1.61318,-2.8118 -1.61318,-2.8118 l 11.6985,-5.3193 c 0,0 28.55752,-20.6888 46.05512,-33.9872 -5.83421,17.9624 -22.95902,46.1856 -22.95902,46.1856 0,0 -4.85125,12.9656 5.51826,27.3288"
         id="path28"
         style="fill:#e67a17;fill-opacity:1;fill-rule:nonzero;stroke:none" /><path
         d="m 724.56406,928.66337 c -64.97199,0 -86.97982,32.98583 -86.97982,32.98583 l 10.15386,-24.726 c 3.83821,-10.69883 44.78129,-43.98389 76.72733,-43.98389"
         id="path30"
         style="fill:#e67a17;fill-opacity:1;fill-rule:nonzero;stroke:none" /><path
         d="m 644.70398,983.93453 c 0,0 5.9763,-36.53316 29.91159,-36.53316 20.33948,0 26.33417,30.85943 26.33417,37.23861 l -56.24576,-0.70545"
         id="path32"
         style="fill:#e67a17;fill-opacity:1;fill-rule:nonzero;stroke:none" /><path
         d="m 604.87257,1039.0318 c 2.12639,5.8543 9.57211,29.5221 11.96263,51.0619 2.86862,25.7975 1.82382,63.5293 1.82382,63.5293 0,0 -6.38587,-24.7327 -11.97099,-28.7297 -5.58178,-3.987 -15.95714,-31.1102 -15.95714,-31.1102 0,0 -5.55704,-40.3814 -8.20182,-53.9555 7.31883,-1.4661 13.48002,2.8485 22.3435,-0.7958"
         id="path34"
         style="fill:#e67a17;fill-opacity:1;fill-rule:nonzero;stroke:none" /><path
         d="m 547.0703,1199.0964 c 0,0 13.55893,4.791 17.5521,34.3064 3.98732,29.5221 -4.7904,55.0522 -4.7904,55.0522 0,0 0.79723,-40.689 -3.98732,-48.6697 -4.79107,-7.9773 -8.77438,-10.3695 -14.36284,-20.7457 -5.5878,-10.3761 2.39202,-16.752 5.58846,-19.9432"
         id="path36"
         style="fill:#e67a17;fill-opacity:1;fill-rule:nonzero;stroke:none" /><path
         d="m 563.26148,1390.6489 -2.76866,1.7536 c -8.16321,-0.2775 2.76866,-1.7536 2.76866,-1.7536"
         id="path38"
         style="fill:#faba4f;fill-opacity:1;fill-rule:nonzero;stroke:none" /><path
         d="m 665.37613,1375.1523 c 0,0 -12.7617,2.1264 -19.14757,11.6985 -6.38586,9.5754 -24.46521,28.7264 -53.29187,28.9403 -28.82365,0.2157 -57.34038,-7.6597 -57.34038,-7.6597 l 24.89317,-15.7289 c 2.63291,0.084 7.23659,0.05 14.84997,-0.204 31.24159,-1.0381 36.05105,-31.941 36.05105,-31.941 l 110.10099,15.1606"
         id="path40"
         style="fill:#f8a00f;fill-opacity:1;fill-rule:nonzero;stroke:none" /><path
         d="m 676.01812,1204.4792 c 0,0 -14.89478,-14.8948 -37.77021,-10.1037 -22.87377,4.7827 -36.70535,14.8898 -37.76855,32.4459 -1.06319,17.5527 4.79107,24.4669 4.79107,24.4669 0,0 25.53009,-7.984 37.76855,-18.6227 12.23344,-10.6353 21.27395,-27.6565 32.97914,-28.1864"
         id="path42"
         style="fill:#ffffff;fill-opacity:1;fill-rule:nonzero;stroke:none" /><path
         d="m 657.99059,1209.8002 c 0,0 -12.91716,-5.9011 -27.35557,-1.095 -18.90015,6.304 -20.15894,25.9598 -20.15894,25.9598 0,0 -11.59318,-34.024 20.91287,-40.5754 26.07339,-5.2524 41.49308,9.8563 41.49308,9.8563 l -14.89144,5.8543"
         id="path44"
         style="fill:#c9c8c6;fill-opacity:1;fill-rule:nonzero;stroke:none" /><path
         d="m 667.16985,1382.3707 c -1.38917,29.181 22.53274,52.4226 30.82099,53.4122 0.45805,-4.9449 -0.46306,-24.2312 7.82519,-30.164 2.41393,15.754 10.57178,33.1229 42.78529,44.5021 -6.89907,-18.3 -0.9211,-33.6261 1.92579,-40.7308 21.9978,19.9667 36.81902,16.6668 36.81902,16.6668 0,0 -15.28261,-26.3743 -9.30631,-43.6813 -44.16109,3.4637 -110.65432,-4.6908 -110.86997,-0.01"
         id="path46"
         style="fill:#3f2a18;fill-opacity:1;fill-rule:nonzero;stroke:none" /><path
         d="m 573.55225,1337.922 c -10.53684,8.7396 -2.68323,16.8524 -3.51574,26.7856 -0.45186,5.2842 -0.86978,10.2708 -2.61335,13.0208 -9.69582,15.311 -32.57059,19.9566 -32.79844,20.0051 l -10.73611,2.103 7.10737,8.3133 c 0.9206,1.0766 30.10484,28.922 75.26911,14.3398 31.59164,-10.1873 54.97861,-44.7378 55.84789,-46.1354 l -15.83928,-7.4474 c -0.18723,0.2943 -18.67614,32.7686 -45.77762,41.5082 -21.91053,7.0696 -42.1014,0.346 -50.75174,-4.0622 9.19498,-3.6711 21.21612,-10.3562 28.45856,-21.7922 3.41794,-5.4013 3.9945,-12.2017 4.55084,-18.7865 0.73404,-8.7179 1.42094,-16.9476 7.83807,-22.277 l -17.03956,-5.5751"
         id="path48"
         style="fill:#3f2a18;fill-opacity:1;fill-rule:nonzero;stroke:none" /><path
         d="m 545.41165,1210.3168 c 0,0 13.27491,16.4594 17.2074,48.4924 1.54431,12.6146 -1.19894,37.4994 -5.5878,47.0749 0.79723,-23.5358 -5.18626,-47.0749 -5.18626,-47.0749 0,0 -4.03413,-43.7047 -6.43334,-48.4924"
         id="path50"
         style="fill:#3f2a18;fill-opacity:1;fill-rule:nonzero;stroke:none" /><path
         d="m 615.40925,1354.547 c -0.007,0.035 -4.25947,18.6193 -16.04992,28.0009 -16.631,13.2297 -36.93955,6.1919 -37.13547,6.1284 l -2.94887,9.1107 c 0.98346,0.3193 24.19374,7.633 45.58421,-7.4056 21.51969,-15.1204 24.10246,-28.8283 24.32646,-30.3445 l -13.77641,-5.4899"
         id="path52"
         style="fill:#3f2a18;fill-opacity:1;fill-rule:nonzero;stroke:none" /><path
         d="m 587.10399,1222.1222 c 0,0 -6.96427,9.9717 -5.71117,20.9346 0.62371,5.4147 3.13325,10.9747 7.61339,12.9456 8.32519,3.6577 12.01478,-5.779 12.01478,-5.779 0,0 -11.71756,-2.892 -13.917,-28.1012"
         id="path54"
         style="fill:#3f2a18;fill-opacity:1;fill-rule:nonzero;stroke:none" /><path
         d="m 663.57237,1206.9266 c 0.29088,-0.5433 0.43966,-0.8476 0.43966,-0.8476 0,0 -21.72197,-16.3023 -43.9839,0.2407 -11.91582,8.8634 -10.7891,30.7893 -7.13812,40.0855 9.49354,-2.1514 17.54608,-6.0314 24.27631,-10.56 -8.50557,7.5911 -15.95129,13.1796 -15.93123,13.31 l -9.66739,2.7365 -18.78965,6.4427 c -0.24106,-1.4343 -7.09433,-33.5575 12.68964,-55.4483 8.76803,-9.7042 49.87327,-31.4395 69.39195,5.7239 l -11.28727,-1.6834"
         id="path56"
         style="fill:#3f2a18;fill-opacity:1;fill-rule:nonzero;stroke:none" /><path
         d="m 661.53792,1204.5377 c 12.2301,-18.6143 43.08787,-7.9773 42.55627,11.7019 0,0 -20.61865,-11.3776 -38.83508,9.5721 -10.63531,12.2334 -44.71442,45.9581 -90.92919,34.7494 31.91511,-7.0177 74.16713,-36.1771 87.208,-56.0234"
         id="path58"
         style="fill:#3f2a18;fill-opacity:1;fill-rule:nonzero;stroke:none" /><path
         d="m 570.01094,1152.0014 c 2.94318,-1.6984 13.31803,-12.444 13.32455,-28.5157 0,-8.0592 -0.80308,-48.5459 -4.7904,-73.282 5.99987,-3.8983 10.17977,-4.7275 16.15406,-8.7011 2.99016,28.6461 5.13494,70.1643 4.13527,86.9246 -1.14177,19.1075 -11.37252,31.9294 -20.85871,37.3958 -2.97126,1.7085 -6.07559,3.3885 -9.20216,5.0803 -16.24801,8.7797 -33.05119,17.862 -33.05119,33.3686 0,12.1332 4.71601,15.9262 9.70885,19.9483 l 0.53812,0.4363 c 3.31262,2.6764 7.06223,5.7122 9.28374,10.6989 6.06256,13.6293 7.0532,48.347 0,57.1601 -3.51507,4.3916 -12.93606,19.1593 -10.22674,29.0825 1.0311,3.788 3.41727,6.5931 7.29994,8.5841 4.10935,2.1047 9.65987,3.1712 16.49492,3.1712 13.42319,0 28.31111,-4.0856 35.99287,-6.5196 27.44752,-8.6978 60.56875,-33.7799 70.06229,-41.2624 0.27082,-0.2073 0.43297,-0.331 0.46139,-0.351 l 6.07493,-4.2244 -3.79976,6.3574 c -0.23403,0.3962 -24.29637,39.9618 -67.32071,54.4705 -8.37016,2.8218 -24.81343,7.556 -40.97401,7.556 -9.62277,0 -17.78664,-1.68 -24.25124,-4.99 -7.87919,-4.0304 -13.21423,-10.4614 -15.43189,-18.5909 -5.433,-19.9265 12.26219,-42.1166 12.86617,-42.8237 2.06354,-3.6844 2.9365,-30.4348 -1.82966,-41.142 -0.6543,-1.4795 -2.45204,-2.9305 -4.72721,-4.766 -0.71181,-0.5768 -1.50904,-1.1736 -2.35408,-1.8155 -6.72388,-5.0752 -16.89128,-12.7433 -16.89128,-30.4198 0,-24.1843 24.51052,-37.2971 44.2084,-47.8405 3.23105,-1.7368 6.31666,-3.3818 9.10354,-4.99"
         id="path60"
         style="fill:#3f2a18;fill-opacity:1;fill-rule:nonzero;stroke:none" /><path
         d="m 573.55225,1337.922 c -10.53684,8.7396 -2.68323,16.8524 -3.51574,26.7856 -0.45186,5.2842 -0.86978,10.2708 -2.61335,13.0208 -9.69582,15.311 -32.57059,19.9566 -32.79844,20.0051 l -10.73611,2.103 7.10737,8.3133 c 0.9206,1.0766 30.10484,28.922 75.26911,14.3398 31.59164,-10.1873 54.97861,-44.7378 55.84789,-46.1354 l -15.83928,-7.4474 c -0.18723,0.2943 -18.67614,32.7686 -45.77762,41.5082 -21.91053,7.0696 -42.1014,0.346 -50.75174,-4.0622 9.19498,-3.6711 21.21612,-10.3562 28.45856,-21.7922 3.41794,-5.4013 3.9945,-12.2017 4.55084,-18.7865 0.73404,-8.7179 1.42094,-16.9476 7.83807,-22.277 l -17.03956,-5.5751"
         id="path62"
         style="fill:#3f2a18;fill-opacity:1;fill-rule:nonzero;stroke:none" /><path
         d="m 573.21005,1336.1317 -0.67971,0.5616 c -7.81332,6.4845 -6.42765,12.8737 -5.08562,19.0523 0.6105,2.8519 1.2531,5.8008 0.99315,8.8266 -0.42645,5.0852 -0.83451,9.8813 -2.36578,12.3053 -9.23342,14.5771 -31.54533,19.2478 -31.76666,19.293 l -13.41015,2.6295 8.88872,10.3913 c 0.16132,0.1922 18.89982,19.1091 50.63456,19.1091 8.651,0 17.51482,-1.4393 26.33299,-4.2879 32.97246,-10.632 56.49484,-46.4546 56.71718,-46.809 l 0.95119,-1.5213 -18.738,-8.8131 -0.75393,1.1919 c -2.01606,3.437 -19.78281,32.7384 -44.9167,40.8461 -6.17272,1.9927 -12.67611,2.999 -19.32359,2.999 -12.04087,0 -21.80522,-3.2815 -27.0005,-5.4848 8.68226,-3.9101 19.21275,-10.4915 25.87662,-20.9998 3.62356,-5.7239 4.20865,-12.7216 4.78522,-19.4802 0.70529,-8.4036 1.37263,-16.3074 7.26785,-21.2021 l 2.22419,-1.8456 -20.63103,-6.7619"
         id="path64"
         style="fill:#3f2a18;fill-opacity:1;fill-rule:nonzero;stroke:none" /><path
         d="m 615.40925,1354.547 c -0.007,0.035 -4.25947,18.6193 -16.04992,28.0009 -16.631,13.2297 -36.93955,6.1919 -37.13547,6.1284 l -2.94887,9.1107 c 0.98346,0.3193 24.19374,7.633 45.58421,-7.4056 21.51969,-15.1204 24.10246,-28.8283 24.32646,-30.3445 l -13.77641,-5.4899"
         id="path66"
         style="fill:#3f2a18;fill-opacity:1;fill-rule:nonzero;stroke:none" /><path
         d="m 575.3428,1392.1969 c 9.44824,0 18.10325,-2.9054 25.00952,-8.3986 10.01343,-7.9757 14.72092,-22.053 16.1452,-27.0998 l 10.85263,4.3263 c -0.98296,3.8315 -5.3093,15.3294 -23.40202,28.051 -8.65736,6.085 -18.61563,9.1676 -29.60835,9.1676 -6.03113,0 -10.71705,-0.9596 -13.03335,-1.5447 l 1.95839,-6.0498 c 2.26916,0.6101 6.63846,1.548 12.07798,1.548 z m 38.92468,-39.8231 -0.41458,1.8288 c -0.0451,0.1789 -4.21601,18.1279 -15.4899,27.0915 -6.42598,5.117 -14.17595,7.7148 -23.0202,7.7148 -6.90493,0 -12.03351,-1.6482 -12.59386,-1.8405 l -1.52475,-0.5065 -3.95523,12.1499 1.51556,0.4898 c 0.67988,0.2156 6.8409,2.1364 15.55526,2.1364 11.49606,0 22.36541,-3.3735 31.44554,-9.7493 22.05965,-15.5016 24.75274,-29.8347 24.98344,-31.4178 l 0.19224,-1.2488 -16.69352,-6.6483"
         id="path68"
         style="fill:#3f2a18;fill-opacity:1;fill-rule:nonzero;stroke:none" /><path
         d="m 673.6159,956.16605 0,0 c -4.71417,0 -9.5253,1.71014 -12.86033,4.59715 -2.55267,2.19995 -11.18529,10.12711 -14.99174,19.84299 -1.42093,3.63091 -1.10164,6.53799 0.95956,8.62927 1.41926,1.43264 4.36813,3.14613 10.35613,3.14613 l 4.25947,0.005 c 5.07526,0.005 13.62095,0.005 20.92457,0.005 l 7.00272,0 c 4.55369,0 7.8185,-0.98296 9.69582,-2.90373 2.41058,-2.47745 1.63825,-5.62859 0.96456,-7.28691 -1.17353,-2.90707 -6.03146,-12.36049 -14.25285,-21.15192 -2.94217,-3.14612 -7.22672,-4.88301 -12.05791,-4.88301"
         id="path70"
         style="fill:#3f2a18;fill-opacity:1;fill-rule:nonzero;stroke:none" /><path
         d="m 678.55909,1203.4428 -17.02117,1.0949 c 0,0 4.35142,-7.6697 7.16989,-17.5895 3.1829,-11.2204 -2.91042,-27.6181 -2.91042,-27.6181 0,0 22.69323,25.694 12.7617,44.1127"
         id="path72"
         style="fill:#3f2a18;fill-opacity:1;fill-rule:nonzero;stroke:none" /><path
         d="m 657.31021,911.2226 c -60.57962,4.65567 -81.89486,61.89942 -81.89486,73.82193 l 15.82156,-0.007 -7.90978,0.007 7.90978,0 c 0.0797,-5.15383 16.17998,-54.12103 67.28528,-58.05118 l -1.21198,-15.77075"
         id="path74"
         style="fill:#3f2a18;fill-opacity:1;fill-rule:nonzero;stroke:none" /><path
         d="m 640.28737,1013.7826 c -0.94618,5.4731 -1.04481,10.6604 0.11033,15.759 -4.60384,3.4604 -12.86701,4.746 -19.06565,6.7553 -5.06857,3.208 -31.00604,-3.2882 -49.82378,19.4853 -23.57805,28.5174 -18.6158,45.5436 -18.6158,45.5436 -6.04417,-6.7169 -11.90428,-4.1575 -21.11882,-35.475 -9.2269,-31.3242 4.33202,-53.1615 29.60199,-75.08407 11.93889,-10.3578 28.8178,-14.62229 43.33478,-16.25553 -4.86295,4.88301 8.30664,5.37115 17.38392,8.76802 -0.72384,7.3287 0.48814,14.44342 5.9529,20.17398 3.29491,3.4537 7.53432,5.5166 11.93254,7.1632 0.24574,0.5684 0.45303,1.0933 0.68707,1.6383 -0.14544,0.4965 -0.28921,0.9996 -0.37948,1.5279"
         id="path76"
         style="fill:#ffffff;fill-opacity:1;fill-rule:nonzero;stroke:none" /><path
         d="m 621.97231,983.4698 c -0.52491,1.53628 -0.9211,3.106 -1.31061,4.68241 -0.42126,1.72518 -2.50921,6.60652 0.0669,1.03143 -0.66199,1.42763 -1.09496,2.90039 -1.41425,4.38318 -40.9272,0.0518 -76.53174,28.14958 -69.65222,87.22558 -5.35728,7.113 -12.86033,-14.3431 -12.86033,-14.3431 0,0 -20.48793,-59.4922 32.42765,-82.54988 17.63167,-7.68811 33.21251,-13.20135 36.89023,-10.97633 7.65635,-1.55634 14.57047,3.78304 17.1616,7.29359 -0.48647,1.07992 -0.92946,2.15983 -1.30894,3.25312"
         id="path78"
         style="fill:#c9c8c6;fill-opacity:1;fill-rule:nonzero;stroke:none" /><path
         d="m 639.55015,1022.3483 c 0.0619,4.9884 1.08159,9.8162 3.49217,14.629 0.16884,0.3327 0.36443,0.6486 0.54497,0.9713 -15.74901,0.1354 -33.88687,1.6449 -49.33147,7.8252 -16.97687,6.792 -38.2112,30.0219 -41.86034,57.3173 0,0 -31.97178,-24.6709 -22.57687,-77.4763 8.81884,-49.58571 50.31208,-65.75097 97.63351,-68.48419 0.0251,0.32097 -5.32267,11.36584 -3.63259,18.12783 -26.87145,-1.95253 -56.91878,8.42868 -71.42405,32.29876 -13.28009,21.8457 -9.55606,59.1428 -4.09749,64.6076 13.31202,-42.0097 61.2152,-50.5487 91.25216,-49.8165"
         id="path80"
         style="fill:#3f2a18;fill-opacity:1;fill-rule:nonzero;stroke:none" /><path
         d="m 644.50839,1052.4221 c -8.5156,-24.9918 -25.90955,-45.2143 -25.90955,-45.2143 0,0 23.92693,1.0883 25.24756,5.321 0.97794,3.1211 21.60495,51.4079 29.52209,107.9729 -7.44739,-12.2334 -28.13291,-65.9398 -28.8601,-68.0796"
         id="path82"
         style="fill:#3f2a18;fill-opacity:1;fill-rule:nonzero;stroke:none" /><path
         d="m 780.06591,1110.037 c 0,0 27.12154,-41.4831 47.02972,-70.9199 3.07759,-4.5537 -19.90818,-4.8697 -19.90818,-4.8697 l -27.12154,75.7896"
         id="path84"
         style="fill:#e67a17;fill-opacity:1;fill-rule:nonzero;stroke:none" /><path
         d="m 767.1454,1196.0422 c 0,0 8.17959,-20.403 12.65471,-31.2189 4.86296,-11.7587 23.40202,-17.6079 23.40202,-17.6079 0,0 -9.60888,10.0803 -9.60888,35.6154 0,10.7155 -13.83158,14.9733 -13.83158,14.9733 l -12.61627,-1.7619"
         id="path86"
         style="fill:#e67a17;fill-opacity:1;fill-rule:nonzero;stroke:none" /><path
         d="m 775.40691,1184.5058 c 0,0 16.75537,-19.9449 47.87225,-8.7747 31.11855,11.1686 34.30814,51.0619 34.30814,62.2321 0,11.1686 -59.03916,-11.1702 -67.01982,-15.958 -7.98065,-4.7877 -23.13789,-23.9336 -15.16057,-37.4994"
         id="path88"
         style="fill:#e67a17;fill-opacity:1;fill-rule:nonzero;stroke:none" /><path
         d="m 892.92854,1397.6315 c 0,0 -28.71967,5.5885 -47.87225,-9.5721 -19.14589,-15.1555 -24.73269,-27.1265 -24.73269,-27.1265 l 32.27369,-25.5803 c 0,0 15.60024,7.2301 20.38796,27.9758 4.78271,20.7407 1.59312,30.3128 19.94329,34.3031"
         id="path90"
         style="fill:#e67a17;fill-opacity:1;fill-rule:nonzero;stroke:none" /><path
         d="m 783.78543,1242.1174 c 12.36718,17.5527 32.73675,25.2091 49.01569,26.4796 27.7434,2.1698 40.90797,-7.6397 40.90797,-7.6397 0,0 -45.43492,-1.9241 -58.53263,-19.1241 -24.38163,-32.0146 -59.93852,-34.6141 -65.62394,-27.5846 6.57476,-0.3277 13.81319,2.9305 21.55145,10.2541 4.83454,4.5805 8.75967,12.0429 12.68146,17.6147"
         id="path92"
         style="fill:#e67a17;fill-opacity:1;fill-rule:nonzero;stroke:none" /><path
         d="m 860.48768,1180.0524 c 0,0 50.40821,17.3305 40.83275,34.8799 -9.5721,17.5561 -1.95922,27.1182 -1.95922,27.1182 0,0 28.15631,-21.0132 20.9764,-43.3503 -4.40826,-13.7113 -11.80382,-23.6378 -52.41424,-42.67 -19.47856,-36.1804 -4.02209,-101.3045 -4.9432,-101.6104 -1.54297,-0.5133 -27.34721,12.755 -25.58357,73.6831 0.53327,18.7096 2.0311,44.2514 23.09108,51.9495"
         id="path94"
         style="fill:#e67a17;fill-opacity:1;fill-rule:nonzero;stroke:none" /><path
         d="m 794.42909,1366.4127 c 21.13019,-10.739 50.09393,-25.6939 50.09393,-25.6939 l -11.39592,-5.7022 c 1.08827,-1.7619 1.61485,-2.8118 1.61485,-2.8118 l -11.6985,-5.3193 c 0,0 -28.55919,-20.6888 -46.05679,-33.9872 5.82752,17.9624 22.954,46.1856 22.954,46.1856 0,0 4.86128,12.9656 -5.51157,27.3288"
         id="path96"
         style="fill:#e67a17;fill-opacity:1;fill-rule:nonzero;stroke:none" /><path
         d="m 724.20632,928.66337 c 64.96196,0 86.96979,32.98583 86.96979,32.98583 l -10.14718,-24.726 c -3.8382,-10.69883 -44.78463,-43.98389 -76.72565,-43.98389"
         id="path98"
         style="fill:#e67a17;fill-opacity:1;fill-rule:nonzero;stroke:none" /><path
         d="m 804.06305,983.93453 c 0,0 -5.98465,-36.53316 -29.91158,-36.53316 -20.33614,0 -26.33083,30.85943 -26.33083,37.23861 l 56.24241,-0.70545"
         id="path100"
         style="fill:#e67a17;fill-opacity:1;fill-rule:nonzero;stroke:none" /><path
         d="m 843.89446,1039.0318 c -2.12639,5.8543 -9.57043,29.5221 -11.97098,51.0619 -2.86696,25.7975 -1.81546,63.5293 -1.81546,63.5293 0,0 6.38586,-24.7327 11.9643,-28.7297 5.58847,-3.987 15.95797,-31.1102 15.95797,-31.1102 0,0 5.55671,-40.3814 8.20133,-53.9555 -7.31867,-1.4661 -13.47384,2.8485 -22.33716,-0.7958"
         id="path102"
         style="fill:#e67a17;fill-opacity:1;fill-rule:nonzero;stroke:none" /><path
         d="m 901.70158,1199.0964 c 0,0 -13.56745,4.791 -17.55277,34.3064 -3.98698,29.5221 4.7894,55.0522 4.7894,55.0522 0,0 -0.80408,-40.689 3.98699,-48.6697 4.79107,-7.9806 8.77638,-10.3695 14.3615,-20.7457 5.58011,-10.3728 -2.3972,-16.752 -5.58512,-19.9432"
         id="path104"
         style="fill:#e67a17;fill-opacity:1;fill-rule:nonzero;stroke:none" /><path
         d="m 885.50288,1390.6489 2.77334,1.7536 c 8.16455,-0.2775 -2.77334,-1.7536 -2.77334,-1.7536"
         id="path106"
         style="fill:#faba4f;fill-opacity:1;fill-rule:nonzero;stroke:none" /><path
         d="m 783.38422,1375.1523 c 0,0 12.76839,2.1264 19.14756,11.6985 6.38587,9.5754 24.47191,28.7264 53.29857,28.9403 28.82331,0.2157 57.34071,-7.6597 57.34071,-7.6597 l -24.89484,-15.7289 c -2.63291,0.084 -7.23675,0.05 -14.85466,-0.204 -31.23556,-1.0381 -36.04502,-31.941 -36.04502,-31.941 l -110.09765,15.1606"
         id="path108"
         style="fill:#f8a00f;fill-opacity:1;fill-rule:nonzero;stroke:none" /><path
         d="m 772.74892,1204.4792 c 0,0 14.89477,-14.8948 37.76352,-10.1037 22.87377,4.7827 36.70535,14.8898 37.76855,32.4459 1.06152,17.5527 -4.78606,24.4669 -4.78606,24.4669 0,0 -25.5351,-7.984 -37.76854,-18.6227 -12.23177,-10.6386 -21.27228,-27.6565 -32.97747,-28.1864"
         id="path110"
         style="fill:#ffffff;fill-opacity:1;fill-rule:nonzero;stroke:none" /><path
         d="m 790.76976,1209.8002 c 0,0 12.92385,-5.9011 27.35557,-1.095 18.90517,6.304 20.16562,25.9598 20.16562,25.9598 0,0 11.58817,-34.024 -20.91955,-40.5754 -26.0667,-5.2524 -41.4914,9.8563 -41.4914,9.8563 l 14.88976,5.8543"
         id="path112"
         style="fill:#c9c8c6;fill-opacity:1;fill-rule:nonzero;stroke:none" /><path
         d="m 875.21195,1337.922 c 10.53667,8.7396 2.68975,16.8524 3.52225,26.7856 0.44467,5.2842 0.86259,10.2708 2.60617,13.0208 9.69749,15.311 32.56958,19.9566 32.80529,20.0051 l 10.73728,2.103 -7.10804,8.3133 c -0.9211,1.0766 -30.1055,28.922 -75.27463,14.3398 -31.58662,-10.1873 -54.97359,-44.7378 -55.84455,-46.1354 l 15.83427,-7.4474 c 0.19225,0.2943 18.68283,32.7686 45.78598,41.5082 21.90753,7.0696 42.09822,0.346 50.74422,-4.0622 -9.1893,-3.6711 -21.21545,-10.3562 -28.45889,-21.7922 -3.41694,-5.4013 -3.98866,-12.2017 -4.54366,-18.7865 -0.73555,-8.7179 -1.4293,-16.9476 -7.84525,-22.277 l 17.03956,-5.5751"
         id="path114"
         style="fill:#3f2a18;fill-opacity:1;fill-rule:nonzero;stroke:none" /><path
         d="m 903.3482,1210.3168 c 0,0 -13.26822,16.4594 -17.20004,48.4924 -1.54465,12.6146 1.19358,37.4994 5.58178,47.0749 -0.7974,-23.5358 5.1906,-47.0749 5.1906,-47.0749 0,0 4.03547,-43.7047 6.42766,-48.4924"
         id="path116"
         style="fill:#3f2a18;fill-opacity:1;fill-rule:nonzero;stroke:none" /><path
         d="m 833.35779,1354.547 c 0.007,0.035 4.25947,18.6193 16.04992,28.0009 16.63166,13.2297 36.93938,6.1919 37.12828,6.1284 l 2.95722,9.1107 c -0.9863,0.3193 -24.1944,7.633 -45.59373,-7.4056 -21.51969,-15.1204 -24.09577,-28.8283 -24.32479,-30.3445 l 13.7831,-5.4899"
         id="path118"
         style="fill:#3f2a18;fill-opacity:1;fill-rule:nonzero;stroke:none" /><path
         d="m 861.66121,1222.1222 c 0,0 6.96427,9.9717 5.70548,20.9346 -0.61685,5.4147 -3.12606,10.9747 -7.60452,12.9456 -8.3267,3.6577 -12.01613,-5.779 -12.01613,-5.779 0,0 11.71689,-2.892 13.91517,-28.1012"
         id="path120"
         style="fill:#3f2a18;fill-opacity:1;fill-rule:nonzero;stroke:none" /><path
         d="m 785.19467,1206.9266 c -0.29088,-0.5433 -0.43966,-0.8476 -0.43966,-0.8476 0,0 21.71528,-16.3023 43.97553,0.2407 11.92419,8.8634 10.79746,30.7893 7.14147,40.0855 -9.48852,-2.1514 -17.54106,-6.0314 -24.27297,-10.56 8.50724,7.5911 15.95296,13.1796 15.92621,13.31 l 9.67576,2.7365 18.78815,6.4394 c 0.23905,-1.4343 7.09299,-33.5576 -12.6965,-55.4484 -8.76636,-9.7041 -49.87327,-31.4395 -69.38526,5.7256 l 11.28727,-1.6817"
         id="path122"
         style="fill:#3f2a18;fill-opacity:1;fill-rule:nonzero;stroke:none" /><path
         d="m 787.22243,1204.5377 c -12.2301,-18.6143 -43.07784,-7.9773 -42.54624,11.7019 0,0 20.61196,-11.3776 38.82672,9.5721 10.63698,12.2334 44.72111,45.9581 90.93671,34.7494 -31.91427,-7.0177 -74.16963,-36.1771 -87.21719,-56.0234"
         id="path124"
         style="fill:#3f2a18;fill-opacity:1;fill-rule:nonzero;stroke:none" /><path
         d="m 878.75928,1152.0014 c -2.94385,-1.6984 -13.32506,-12.444 -13.32506,-28.5157 -0.007,-8.0592 0.7974,-48.5459 4.79107,-73.282 -5.9997,-3.8983 -10.17894,-4.7275 -16.15523,-8.7011 -2.99066,28.6461 -5.14213,70.1643 -4.1341,86.9246 1.14009,19.1075 11.36751,31.9294 20.85102,37.3958 2.97227,1.7085 6.0766,3.3885 9.20935,5.0803 16.24885,8.7797 33.05103,17.862 33.05103,33.3686 0,12.1332 -4.72253,15.9262 -9.71421,19.9483 l -0.5316,0.4363 c -3.31496,2.6764 -7.06958,5.7122 -9.28457,10.6989 -6.06323,13.6293 -7.05789,48.347 -0.007,57.1601 3.51557,4.3916 12.94224,19.1593 10.2341,29.0825 -1.03812,3.788 -3.4253,6.5931 -7.30697,8.5841 -4.11069,2.1047 -9.65402,3.1712 -16.49458,3.1712 -13.41533,0 -28.31178,-4.0856 -35.98652,-6.5196 -27.44752,-8.6978 -60.56875,-33.7799 -70.06731,-41.2624 -0.27249,-0.2073 -0.42795,-0.331 -0.45971,-0.351 l -6.07828,-4.2244 3.80143,6.3574 c 0.23905,0.3962 24.29805,39.9618 67.32072,54.4705 8.37183,2.8218 24.8146,7.556 40.97652,7.556 9.62226,0 17.77844,-1.68 24.24956,-4.99 7.88036,-4.0304 13.21306,-10.4614 15.43307,-18.5909 5.43299,-19.9265 -12.26354,-42.1166 -12.86702,-42.8237 -2.06287,-3.6844 -2.93549,-30.4348 1.82382,-41.142 0.65363,-1.4795 2.45237,-2.9305 4.73256,-4.766 0.71214,-0.5768 1.50285,-1.1736 2.35374,-1.8155 6.72689,-5.0752 16.88743,-12.7433 16.88743,-30.4198 0,-24.1843 -24.51035,-37.2971 -44.20288,-47.8405 -3.23138,-1.7368 -6.32067,-3.3818 -9.10069,-4.99"
         id="path126"
         style="fill:#3f2a18;fill-opacity:1;fill-rule:nonzero;stroke:none" /><path
         d="m 849.52138,1340.7673 c -3.89839,6.6031 -13.86836,19.3531 -36.84744,30.5568 -25.64376,12.4993 -55.32298,18.8433 -88.2269,18.8584 l 0,0.01 c 0,0 -0.0451,0 -0.0635,0 0,0 -0.0451,0 -0.0635,0 l 0,0 c -32.90726,-0.017 -62.59317,-6.3591 -88.23024,-18.8583 -22.97741,-11.2054 -32.94571,-23.9537 -36.84744,-30.5569 l -1.67336,-2.215 19.67749,-4.3798 0.62354,0.7873 0.32932,0.7222 c 0.30425,1.3006 2.94218,8.3217 24.88147,19.0205 23.45384,11.4394 50.80941,17.2385 81.2994,17.2485 30.49501,-0.01 57.83721,-5.8091 81.28938,-17.2485 21.94096,-10.6988 24.58725,-17.7199 24.88815,-19.0205 l 0.32766,-0.7222 0.61685,-0.7873 19.68585,4.3798 -1.66668,2.2117"
         id="path128"
         style="fill:#3f2a18;fill-opacity:1;fill-rule:nonzero;stroke:none" /><path
         d="m 875.21195,1337.922 c 10.53667,8.7396 2.68975,16.8524 3.52225,26.7856 0.44467,5.2842 0.86259,10.2708 2.60617,13.0208 9.69749,15.311 32.56958,19.9566 32.80529,20.0051 l 10.73728,2.103 -7.10804,8.3133 c -0.9211,1.0766 -30.1055,28.922 -75.27463,14.3398 -31.58662,-10.1873 -54.97359,-44.7378 -55.84455,-46.1354 l 15.83427,-7.4474 c 0.19225,0.2943 18.68283,32.7686 45.78598,41.5082 21.90753,7.0696 42.09822,0.346 50.74422,-4.0622 -9.1893,-3.6711 -21.21545,-10.3562 -28.45889,-21.7922 -3.41694,-5.4013 -3.98866,-12.2017 -4.54366,-18.7865 -0.73555,-8.7179 -1.4293,-16.9476 -7.84525,-22.277 l 17.03956,-5.5751"
         id="path130"
         style="fill:#3f2a18;fill-opacity:1;fill-rule:nonzero;stroke:none" /><path
         d="m 854.93265,1342.887 2.21666,1.8455 c 5.90108,4.8947 6.56307,12.7985 7.27521,21.2038 0.57172,6.7619 1.16182,13.758 4.78438,19.4785 6.65668,10.5049 17.19503,17.0864 25.87779,21.0015 -5.19896,2.2016 -14.96498,5.4831 -27.00785,5.4831 -6.65,0 -13.14285,-1.0063 -19.31641,-2.999 -25.14058,-8.1077 -42.90565,-37.4091 -44.91837,-40.8444 l -0.75393,-1.1936 -18.738,8.8131 0.95454,1.5213 c 0.21899,0.3544 23.73636,36.1771 56.70881,46.809 8.81985,2.8486 17.68149,4.2879 26.33918,4.2879 31.73541,0 50.47508,-18.9202 50.63389,-19.1091 l 8.89006,-10.3912 -13.41199,-2.6296 c -0.22233,-0.045 -22.53107,-4.7125 -31.77218,-19.293 -1.53127,-2.424 -1.93248,-7.2167 -2.36712,-12.3053 -0.25242,-3.0258 0.38449,-5.9747 1.00135,-8.8249 1.3407,-6.1802 2.72486,-12.5728 -5.09198,-19.0523 l -0.6787,-0.5633 -20.62534,6.762"
         id="path132"
         style="fill:#3f2a18;fill-opacity:1;fill-rule:nonzero;stroke:none" /><path
         d="m 833.35779,1354.547 c 0.007,0.035 4.25947,18.6193 16.04992,28.0009 16.63166,13.2297 36.93938,6.1919 37.12828,6.1284 l 2.95722,9.1107 c -0.9863,0.3193 -24.1944,7.633 -45.59373,-7.4056 -21.51969,-15.1204 -24.09577,-28.8283 -24.32479,-30.3445 l 13.7831,-5.4899"
         id="path134"
         style="fill:#3f2a18;fill-opacity:1;fill-rule:nonzero;stroke:none" /><path
         d="m 885.50288,1390.6489 1.96424,6.0498 c -2.31696,0.5885 -7.00773,1.5447 -13.0392,1.5447 -10.9897,0 -20.95132,-3.086 -29.60399,-9.1676 -18.10109,-12.7232 -22.42743,-24.2195 -23.40871,-28.051 l 10.86098,-4.3263 c 1.42094,5.0502 6.12508,19.1275 16.14354,27.0998 6.91077,5.4932 15.55509,8.3986 25.00517,8.3986 5.433,0 9.80949,-0.9379 12.07797,-1.548 z m -67.68681,-31.6268 0.18555,1.2488 c 0.23404,1.5831 2.92881,15.9128 24.98512,31.4178 9.07227,6.3758 19.94496,9.7493 31.44118,9.7493 8.71955,0 14.87973,-1.9175 15.56179,-2.1364 l 1.51455,-0.4898 -3.95355,-12.1499 -1.52626,0.5065 c -0.57005,0.1923 -5.70047,1.8405 -12.59954,1.8405 -8.84493,0 -16.5882,-2.5944 -23.01419,-7.7148 -11.27723,-8.967 -15.45145,-26.9143 -15.4899,-27.0915 l -0.41458,-1.8254 -16.69017,6.6449"
         id="path136"
         style="fill:#3f2a18;fill-opacity:1;fill-rule:nonzero;stroke:none" /><path
         d="m 763.09657,961.0524 c -8.21971,8.78809 -13.08267,18.24485 -14.25787,21.15193 -0.67202,1.65497 -1.43765,4.80945 0.97293,7.2869 1.87898,1.9191 5.13544,2.90373 9.68913,2.90373 l 7.00773,0 c 7.30529,0 15.8443,0 20.9229,-0.005 l 4.25947,-0.005 c 5.98299,0 8.93018,-1.71348 10.34945,-3.14612 2.06454,-2.08795 2.3855,-4.99502 0.96624,-8.62928 -3.80812,-9.71587 -12.44241,-17.64471 -14.99341,-19.84466 -3.34339,-2.88534 -8.14281,-4.59715 -12.85866,-4.59715 l 0,0 c -4.83119,-0.002 -9.11406,1.73522 -12.05791,4.88468"
         id="path138"
         style="fill:#3f2a18;fill-opacity:1;fill-rule:nonzero;stroke:none" /><path
         d="m 770.21129,1203.4428 17.01114,1.0949 c 0,0 -4.34473,-7.6697 -7.1632,-17.5895 -3.18291,-11.2204 2.91041,-27.6181 2.91041,-27.6181 0,0 -22.69656,25.694 -12.75835,44.1127"
         id="path140"
         style="fill:#3f2a18;fill-opacity:1;fill-rule:nonzero;stroke:none" /><path
         d="m 724.38686,1264.2104 c -10.84761,0 -24.9918,0.2976 -35.60537,7.9239 0,0 13.89511,-24.3599 35.58531,-24.3599 l 0.0201,3.0826 0.0184,-3.0826 c 21.69188,0 35.58531,24.3599 35.58531,24.3599 -10.61357,-7.6263 -24.76612,-7.9239 -35.6037,-7.9239"
         id="path142"
         style="fill:#e67a17;fill-opacity:1;fill-rule:nonzero;stroke:none" /><path
         d="m 754.25331,1264.3275 c -10.87937,-6.5848 -20.59859,-8.8667 -29.86645,-9.069 -9.2712,0.2023 -18.98541,2.4842 -29.86812,9.069 0,0 15.84764,-19.3365 29.78788,-19.4853 l 0,-0.013 c 0.0251,0 0.0518,0.01 0.0802,0.01 0.0251,0 0.0502,-0.01 0.0786,-0.01 l 0,0.013 c 13.93523,0.1488 29.78788,19.4853 29.78788,19.4853"
         id="path144"
         style="fill:#3f2a18;fill-opacity:1;fill-rule:nonzero;stroke:none" /><path
         d="m 791.45682,911.2226 -1.21197,15.77075 c 51.09527,3.93015 67.19534,52.89735 67.27892,58.05118 l 15.8209,0 c 0.007,-11.91916 -21.31408,-69.16626 -81.88785,-73.82193"
         id="path146"
         style="fill:#3f2a18;fill-opacity:1;fill-rule:nonzero;stroke:none" /><path
         d="m 808.47799,1013.7826 c 0.9512,5.4731 1.04314,10.6604 -0.11033,15.759 4.60886,3.4604 12.86535,4.746 19.06398,6.7553 5.06857,3.208 31.01323,-3.2882 49.8298,19.4853 23.57755,28.5174 18.60928,45.5436 18.60928,45.5436 6.04985,-6.7169 11.90412,-4.1575 21.12517,-35.475 9.22774,-31.3242 -4.33804,-53.1615 -29.60901,-75.08407 -11.93755,-10.3578 -28.81663,-14.62229 -43.3336,-16.25553 4.86295,4.88301 -8.30664,5.37115 -17.37892,8.76802 0.72385,7.3287 -0.49315,14.44342 -5.95791,20.17398 -3.28822,3.4537 -7.53431,5.5166 -11.92919,7.1632 -0.24741,0.5684 -0.45972,1.0933 -0.68707,1.6383 0.14878,0.4965 0.28586,0.9996 0.3778,1.5279"
         id="path148"
         style="fill:#ffffff;fill-opacity:1;fill-rule:nonzero;stroke:none" /><path
         d="m 826.78804,983.4698 c 0.5316,1.53628 0.9211,3.106 1.31061,4.68241 0.42628,1.72518 2.51589,6.60652 -0.0635,1.03143 0.66199,1.42763 1.09496,2.90039 1.41425,4.38318 40.92637,0.0518 76.53174,28.14958 69.64604,87.22558 5.35778,7.113 12.86535,-14.3431 12.86535,-14.3431 0,0 20.48993,-59.4922 -32.42582,-82.54988 -17.63134,-7.68811 -33.21151,-13.20135 -36.8909,-10.97633 -7.66471,-1.55634 -14.57549,3.78304 -17.16159,7.29359 0.48312,1.07992 0.93614,2.15983 1.30559,3.25312"
         id="path150"
         style="fill:#c9c8c6;fill-opacity:1;fill-rule:nonzero;stroke:none" /><path
         d="m 809.2102,1022.3483 c -0.0568,4.9884 -1.08159,9.8162 -3.48548,14.629 -0.16884,0.3327 -0.36443,0.6486 -0.54497,0.9713 15.74734,0.1354 33.88687,1.6449 49.33163,7.8252 16.97436,6.792 38.20987,30.0219 41.86085,57.3173 0,0 31.97111,-24.6709 22.5762,-77.4763 -8.82486,-49.58571 -50.31292,-65.75097 -97.63351,-68.48419 -0.0251,0.32097 5.32267,11.36584 3.63259,18.12783 26.86409,-1.95253 56.91108,8.42868 71.42472,32.29876 13.27323,21.8457 9.5487,59.1428 4.09063,64.6076 -13.30667,-42.0097 -61.2157,-50.5487 -91.25266,-49.8165"
         id="path152"
         style="fill:#3f2a18;fill-opacity:1;fill-rule:nonzero;stroke:none" /><path
         d="m 817.22596,976.06253 c -7.2167,-20.67215 -26.61167,-70.70957 -92.84244,-70.79633 -66.2408,0.0868 -85.62909,50.12418 -92.84579,70.79633 -3.99367,11.46948 -3.68942,19.95499 0.93281,25.22917 3.15782,3.6042 10.41297,7.9038 26.94768,7.9038 l 17.27359,0.01 c 12.74331,0.012 28.74308,0.025 47.69171,0.032 18.94027,-0.01 34.95007,-0.02 47.69003,-0.032 l 17.26691,-0.01 c 16.53805,0 23.7932,-4.2996 26.95269,-7.9038 4.61889,-5.27753 4.92648,-13.75969 0.93281,-25.22917 z m 11.09335,33.84847 c -5.65366,6.1117 -16.04825,13.3969 -40.01363,13.3969 0,0 -45.43993,0.025 -63.84025,0.038 l 0,0 c -0.0251,0 -0.0568,0 -0.0786,0 0,0 -0.0568,0 -0.0802,0 l 0,0 c -18.39697,-0.013 -63.84694,-0.038 -63.84694,-0.038 -23.96204,0 -34.35495,-7.2886 -40.01362,-13.3969 -8.23977,-8.8951 -9.53032,-21.26899 -3.83152,-36.73548 15.1472,-41.1671 36.43286,-82.98916 107.68874,-83.048 l 0,-0.007 c 0.0267,0 0.0518,0.007 0.0802,0.007 0.0251,0 0.0502,-0.007 0.0786,-0.007 l 0,0.007 c 71.24919,0.062 92.53485,41.8809 107.68707,83.048 5.70047,15.46649 4.4049,27.84038 -3.82985,36.73548"
         id="path154"
         style="fill:#3f2a18;fill-opacity:1;fill-rule:nonzero;stroke:none" /><path
         d="m 804.25697,1052.4221 c 8.51393,-24.9918 25.90789,-45.2143 25.90789,-45.2143 0,0 -23.92526,1.0883 -25.24757,5.321 -0.97125,3.1211 -21.59994,51.4079 -29.51707,107.9729 7.4407,-12.2334 28.12455,-65.9398 28.85675,-68.0796"
         id="path156"
         style="fill:#3f2a18;fill-opacity:1;fill-rule:nonzero;stroke:none" /></g></g></svg>