<?xml version="1.0" encoding="UTF-8" standalone="no"?>
<!-- Created with Inkscape (http://www.inkscape.org/) -->

<svg
   xmlns:dc="http://purl.org/dc/elements/1.1/"
   xmlns:cc="http://creativecommons.org/ns#"
   xmlns:rdf="http://www.w3.org/1999/02/22-rdf-syntax-ns#"
   xmlns:svg="http://www.w3.org/2000/svg"
   xmlns="http://www.w3.org/2000/svg"
   version="1.1"
   width="72.668427"
   height="70"
   id="svg2"
   xml:space="preserve"><metadata
     id="metadata8"><rdf:RDF><cc:Work
         rdf:about=""><dc:format>image/svg+xml</dc:format><dc:type
           rdf:resource="http://purl.org/dc/dcmitype/StillImage" /><dc:title></dc:title></cc:Work></rdf:RDF></metadata><defs
     id="defs6" /><g
     transform="matrix(2.5477349,0,0,-2.5477349,9.5246056e-5,101.45126)"
     id="g10"><g
       transform="scale(0.1,0.1)"
       id="g12"><path
         d="M 18.123846,333.66486 C -7.1341632,297.3777 -4.0120898,250.16765 15.313557,211.60746 c 0.430887,-0.9417 0.928837,-1.83185 1.403012,-2.74084 0.270592,-0.58918 0.580203,-1.18004 0.911488,-1.75813 0.145051,-0.32037 0.37241,-0.67122 0.558588,-0.98327 0.311774,-0.62965 0.640896,-1.20996 0.972125,-1.80968 0.621385,-1.04589 1.24061,-2.10896 1.861997,-3.146 0.350738,-0.5781 0.684184,-1.15841 1.076049,-1.73651 0.660351,-1.11906 1.426788,-2.22371 2.110972,-3.34055 0.309613,-0.47667 0.599715,-0.9417 0.930998,-1.40728 0.991581,-1.51148 1.987539,-3.00079 3.083099,-4.46904 0,-0.0432 0.04113,-0.082 0.08225,-0.10144 0.164562,-0.24942 0.350738,-0.48719 0.5153,-0.71445 0.930998,-1.27314 1.861997,-2.51415 2.836283,-3.74572 0.331229,-0.45505 0.701478,-0.90955 1.034924,-1.35352 0.887655,-1.07804 1.758016,-2.15165 2.624054,-3.21694 0.333446,-0.38356 0.662569,-0.78817 1.015469,-1.18004 1.158303,-1.39674 2.379404,-2.78241 3.622176,-4.15089 0,-0.0172 0.03897,-0.0471 0.06063,-0.0798 0.04113,-0.0521 0.08225,-0.10427 0.164562,-0.15354 1.199429,-1.31637 2.420585,-2.60727 3.663357,-3.89093 0.391865,-0.39409 0.783731,-0.77487 1.218938,-1.19057 0.950454,-0.96386 1.903124,-1.93383 2.918537,-2.88439 0.413537,-0.39575 0.824913,-0.77709 1.221101,-1.15786 1.322863,-1.24322 2.645782,-2.48588 4.031444,-3.672 0.02161,-0.0216 0.04329,-0.035 0.06274,-0.0521 0.22736,-0.19733 0.476335,-0.39631 0.684184,-0.59141 1.218939,-1.04313 2.442257,-2.07849 3.680485,-3.10222 0.498284,-0.4157 0.993796,-0.80756 1.492079,-1.21052 1.034814,-0.81808 2.067408,-1.60182 3.100557,-2.38998 0.538746,-0.40295 1.078045,-0.81643 1.636744,-1.24266 1.116843,-0.83584 2.275257,-1.65227 3.412055,-2.45983 0.41348,-0.30097 0.826962,-0.60194 1.26206,-0.87907 0.104206,-0.0931 0.227248,-0.17515 0.33145,-0.25994 1.136798,-0.74438 2.212625,-1.4677 3.33224,-2.20376 0.493295,-0.31815 0.972181,-0.6302 1.448294,-0.94835 1.736511,-1.10853 3.473022,-2.17383 5.191797,-3.20864 0.496067,-0.25995 0.991579,-0.5393 1.468247,-0.81643 1.28146,-0.74493 2.586753,-1.48099 3.909784,-2.18436 0.723316,-0.40295 1.448294,-0.75602 2.191008,-1.12626 0.892366,-0.48665 1.822977,-0.98271 2.775757,-1.46991 0.227249,-0.0909 0.454497,-0.17515 0.660685,-0.28766 0.391865,-0.17793 0.763776,-0.37469 1.136242,-0.5587 1.451065,-0.71445 2.938157,-1.38789 4.471253,-2.07018 0.287664,-0.13635 0.597498,-0.25718 0.908994,-0.41348 1.714896,-0.74438 3.434225,-1.45883 5.192355,-2.15166 0.4157,-0.15409 0.82696,-0.34253 1.26206,-0.48499 1.59351,-0.62188 3.24744,-1.23212 4.88196,-1.8213 0.20785,-0.0842 0.39242,-0.14688 0.60027,-0.21617 1.82076,-0.62355 3.61991,-1.21051 5.46228,-1.78196 0.43288,-0.12356 0.86798,-0.27714 1.32303,-0.39187 1.88339,-0.56756 3.70194,-1.23212 5.6269,-1.59351 122.12003,-22.25926 157.59962,73.3902 157.59962,73.3902 -29.8089,-38.79853 -82.70905,-49.05021 -132.81347,-37.6512 -1.86399,0.42235 -3.7047,1.01319 -5.58588,1.5741 -0.4373,0.12356 -0.93338,0.26661 -1.36847,0.42235 -1.81854,0.54762 -3.61768,1.13902 -5.37581,1.73873 -0.24943,0.082 -0.51769,0.17293 -0.76656,0.27936 -1.59128,0.5476 -3.16318,1.14732 -4.73729,1.75535 -0.4351,0.18844 -0.8896,0.34475 -1.32525,0.50881 -1.73817,0.6823 -3.45307,1.41615 -5.12916,2.15221 -0.37192,0.13248 -0.68397,0.29044 -1.03703,0.43343 -1.46548,0.67289 -2.87276,1.33357 -4.30165,2.01753 -0.43344,0.18624 -0.82752,0.39408 -1.26262,0.6108 -1.11684,0.52822 -2.23202,1.11685 -3.3278,1.69716 -0.766,0.39187 -1.51314,0.75381 -2.23646,1.15619 -1.34465,0.72332 -2.68874,1.48987 -4.03338,2.23425 -0.4157,0.28157 -0.8702,0.5199 -1.34687,0.77763 -1.73651,1.03259 -3.4963,2.10011 -5.211197,3.19534 -0.496066,0.31205 -0.952781,0.62133 -1.407278,0.94225 -1.262615,0.79425 -2.505276,1.63452 -3.724105,2.46148 -0.394081,0.27936 -0.785947,0.56923 -1.199428,0.85967 -1.180029,0.82696 -2.338443,1.66279 -3.516256,2.52412 -0.497729,0.39187 -1.015413,0.78429 -1.552495,1.17782 -1.056429,0.81643 -2.110639,1.62399 -3.164851,2.47257 -0.457269,0.38133 -0.928948,0.75602 -1.387879,1.12626 -1.364046,1.09524 -2.64606,2.19545 -3.951354,3.3317 -0.123594,0.13467 -0.307617,0.24941 -0.455051,0.36192 -1.385662,1.24045 -2.771324,2.51138 -4.137032,3.77566 -0.414036,0.39187 -0.762114,0.75546 -1.177813,1.12793 -0.991579,0.97218 -1.985376,1.92275 -2.957556,2.90767 -0.413482,0.41182 -0.788164,0.79482 -1.180029,1.18668 -1.242662,1.25375 -2.464261,2.54629 -3.661474,3.86933 -0.06263,0.0537 -0.125265,0.11249 -0.18845,0.18568 -1.259843,1.38566 -2.480887,2.79348 -3.699716,4.22238 -0.333667,0.38077 -0.643501,0.77487 -0.972181,1.14733 -0.892365,1.09578 -1.78196,2.20431 -2.691509,3.29954 -0.287664,0.42456 -0.621331,0.82696 -0.952227,1.24265 -1.054766,1.35573 -2.067961,2.7087 -3.081212,4.10544 -27.806353,37.93222 -37.839376,90.28197 -15.597342,133.2397"
         id="path48"
         style="fill:#2e64b3;fill-opacity:1;fill-rule:nonzero;stroke:none" /><path
         d="m 96.532794,364.25306 c -18.310135,-26.27325 -17.294722,-61.4541 -3.041806,-89.25601 2.357843,-4.65472 5.046581,-9.17752 8.066772,-13.46919 2.73252,-3.92919 5.75271,-8.58446 9.41418,-11.74099 1.28146,-1.44885 2.66713,-2.85612 4.09602,-4.2695 0.35307,-0.35307 0.70613,-0.69726 1.07638,-1.06752 1.36626,-1.31194 2.75193,-2.6067 4.1786,-3.86709 0.0432,-0.0538 0.12361,-0.10582 0.16684,-0.15798 0.0194,-0.0103 0.041,-0.0283 0.041,-0.0283 1.5913,-1.40729 3.20642,-2.74307 4.88252,-4.04615 0.39186,-0.27934 0.74438,-0.59139 1.13624,-0.86852 1.6567,-1.29477 3.35386,-2.533 5.06875,-3.75404 0.0626,-0.0216 0.10363,-0.0631 0.18846,-0.0953 0.74271,-0.53708 1.52866,-1.03259 2.33622,-1.55028 0.3503,-0.22724 0.72276,-0.49606 1.07583,-0.71445 1.25984,-0.81864 2.50306,-1.58075 3.78452,-2.33844 0.18845,-0.0931 0.37246,-0.19454 0.5587,-0.28766 1.07583,-0.65181 2.21262,-1.29255 3.35385,-1.87286 0.39187,-0.23833 0.78373,-0.42457 1.17782,-0.64128 0.78595,-0.39187 1.57189,-0.80535 2.33622,-1.20996 0.10362,-0.0543 0.25108,-0.1125 0.37413,-0.16683 1.61291,-0.79648 3.24799,-1.52867 4.86091,-2.26473 0.39185,-0.15575 0.72496,-0.28988 1.09522,-0.44397 1.32747,-0.56923 2.66989,-1.13014 3.99458,-1.63453 0.59806,-0.19898 1.15842,-0.43287 1.71712,-0.63186 1.21883,-0.43343 2.46148,-0.85744 3.68309,-1.26039 0.5975,-0.19677 1.13623,-0.3636 1.67554,-0.5393 1.73651,-0.54983 3.49686,-1.2532 5.33701,-1.5392 94.25549,-15.63193 116.05971,56.97453 116.05971,56.97453 -19.63261,-28.28246 -57.6391,-41.74942 -98.18468,-31.22061 -1.82075,0.46557 -3.59828,0.98492 -5.33923,1.55249 -0.55869,0.14467 -1.05198,0.32036 -1.59128,0.50659 -1.26207,0.4024 -2.5269,0.82919 -3.74573,1.28368 -0.5587,0.20563 -1.1368,0.41348 -1.69493,0.6302 -1.34465,0.526 -2.6893,1.04368 -3.99459,1.624 -0.39187,0.15575 -0.76433,0.28766 -1.07417,0.4545 -1.67554,0.72553 -3.33224,1.5026 -4.94515,2.27526 -0.82696,0.42456 -1.63453,0.83804 -2.46149,1.27313 -0.49606,0.24888 -0.97218,0.48721 -1.40727,0.71445 -1.098,0.56757 -2.1112,1.1695 -3.14602,1.77753 -0.24442,0.13469 -0.49606,0.25996 -0.74493,0.40516 -1.25984,0.76434 -2.56569,1.53088 -3.7629,2.32736 -0.4157,0.23612 -0.76655,0.5066 -1.15842,0.75325 -0.82917,0.52877 -1.63452,1.05476 -2.48532,1.62399 -1.71489,1.19113 -3.39043,2.45097 -5.06653,3.71525 -0.39408,0.32035 -0.766,0.60858 -1.13846,0.92007 -17.79301,14.00628 -31.85969,33.1611 -38.51918,54.85281 -7.03473,22.53031 -5.484452,47.82251 6.64009,68.33253"
         id="path50"
         style="fill:#2e64b3;fill-opacity:1;fill-rule:nonzero;stroke:none" /><path
         d="m 162.44484,387.10373 c -10.79928,-15.84642 -11.83466,-35.5339 -4.38867,-53.01264 7.90492,-18.58062 24.06064,-33.15391 42.88846,-40.05173 0.76433,-0.30097 1.53088,-0.55038 2.31682,-0.81864 0.35252,-0.10196 0.68175,-0.21672 1.05644,-0.32924 1.09522,-0.34198 2.19101,-0.75546 3.32779,-0.97439 52.07041,-10.05437 66.18254,26.71999 69.96706,32.13017 -12.39058,-17.81407 -33.18217,-22.08413 -58.69109,-15.88966 -2.00755,0.4872 -4.20077,1.21051 -6.14458,1.91388 -2.48145,0.87905 -4.94293,1.90112 -7.34401,3.03126 -4.48843,2.18048 -8.83387,4.80881 -12.84785,7.85061 -22.83959,17.31634 -36.98831,50.34498 -22.09465,77.24843"
         id="path52"
         style="fill:#2e64b3;fill-opacity:1;fill-rule:nonzero;stroke:none" /></g></g></svg>