<?xml version="1.0" encoding="UTF-8" standalone="no"?>
<!-- Created with Inkscape (http://www.inkscape.org/) -->

<svg
   xmlns:dc="http://purl.org/dc/elements/1.1/"
   xmlns:cc="http://creativecommons.org/ns#"
   xmlns:rdf="http://www.w3.org/1999/02/22-rdf-syntax-ns#"
   xmlns:svg="http://www.w3.org/2000/svg"
   xmlns="http://www.w3.org/2000/svg"
   version="1.1"
   width="120.00001"
   height="51.330051"
   viewBox="0 0 119.99987 51.330051"
   id="logo-less">
  <metadata
     id="metadata5043">
    <rdf:RDF>
      <cc:Work
         rdf:about="">
        <dc:format>image/svg+xml</dc:format>
        <dc:type
           rdf:resource="http://purl.org/dc/dcmitype/StillImage" />
        <dc:title></dc:title>
      </cc:Work>
    </rdf:RDF>
  </metadata>
  <defs
     id="defs5041" />
  <path
     d="m 114.87676,18.719213 c 0,-3.842365 0.59114,-6.108375 0.59114,-10.246306 C 115.4679,2.068966 113.10336,0 107.88169,0 h -3.84236 v 4.53202 h 1.18226 c 2.6601,0 3.25123,0.886699 3.25123,4.137931 0,3.054188 -0.29557,6.108375 -0.29557,9.655173 0,4.532019 1.47783,6.305419 4.4335,6.995076 v 0.295565 c -2.95567,0.689656 -4.4335,2.463054 -4.4335,6.995073 0,3.546799 0.29557,6.403943 0.29557,9.655175 0,3.349753 -0.68966,4.236452 -3.25123,4.236452 v 0.09852 h -1.18226 v 4.729067 h 3.84236 c 5.22167,0 7.58621,-2.068965 7.58621,-8.472907 0,-4.236453 -0.59114,-6.403941 -0.59114,-10.246307 0,-2.068965 1.28079,-4.236451 5.12315,-4.433496 v -5.123154 c -3.84236,-0.09852 -5.12315,-2.26601 -5.12315,-4.334975 z M 95.073809,24.729066 C 92.118144,23.546799 89.35952,22.857143 89.35952,20.8867 c 0,-1.477832 1.182271,-2.364531 3.349755,-2.364531 2.167492,0 4.137928,0.886699 6.30542,2.463053 l 3.940885,-5.221674 c -2.46306,-1.871921 -5.812804,-3.842365 -10.344829,-3.842365 -6.699503,0 -11.231528,3.842365 -11.231528,9.261084 0,4.827587 4.236452,7.29064 7.783256,8.669951 3.054182,1.182266 6.009847,2.167489 6.009847,4.137932 0,1.477832 -1.182263,2.463054 -3.842362,2.463054 -2.463051,0 -4.926108,-0.985222 -7.586208,-3.054187 l -3.940886,5.714286 c 2.955665,2.463054 7.48769,4.137932 11.231528,4.137932 7.881773,0 12.118222,-4.137932 12.118222,-9.556652 0,-5.418719 -4.236449,-7.684729 -8.078811,-8.965517 z M 27.783161,35.86207 c -0.689656,0 -1.576356,-0.591132 -1.576356,-2.463053 V 4.729065 0.394088 0 H 12.216657 C 6.8964605,0 4.5319284,2.068966 4.5319284,8.472907 c 0,4.236453 0.5911329,6.600985 0.5911329,10.246306 0,2.068965 -1.2807882,4.236452 -5.123152886914,4.433498 v 5.123153 C 3.8422731,28.374384 5.1230613,30.541873 5.1230613,32.610838 c 0,3.645321 -0.5911329,5.812809 -0.5911329,10.049263 0,6.403941 2.3645321,8.472906 7.5862056,8.472906 H 15.9605 v -4.53202 h -1.182266 c -2.463055,0 -3.251232,-0.985221 -3.251232,-4.236453 0,-3.251231 0.295567,-6.009852 0.295567,-9.655173 0,-4.532019 -1.477833,-6.305419 -4.4334976,-6.995073 V 25.41872 c 2.9556646,-0.689654 4.4334976,-2.463055 4.4334976,-6.995073 0,-3.546799 -0.295567,-6.403942 -0.295567,-9.655173 0,-3.251232 0.689655,-4.137932 3.251232,-4.137932 h 2.660099 c 0,6.403941 0,28.275863 0,28.275863 0,6.009854 2.068965,9.95074 8.078817,9.95074 1.871923,0 3.349755,-0.295566 4.433498,-0.689655 l -0.985221,-6.403942 c -0.591133,0.09852 -0.8867,0.09852 -1.182266,0.09852 z M 71.23144,24.729066 c -3.054188,-1.182267 -5.812809,-1.871923 -5.812809,-3.842366 0,-1.477832 1.182266,-2.364531 3.349753,-2.364531 2.167488,0 4.137932,0.886699 6.305419,2.463053 l 3.940894,-5.221674 c -2.463058,-1.871921 -5.812814,-3.842365 -10.344834,-3.842365 -6.699508,0 -11.231529,3.842365 -11.231529,9.261084 0,4.827587 4.236454,7.29064 7.783252,8.669951 3.054187,1.182266 6.009854,2.167489 6.009854,4.137932 0,1.477832 -1.182267,2.463054 -3.842366,2.463054 -2.463054,0 -4.926108,-0.985222 -7.586207,-3.054187 l -3.842365,5.714286 c 2.955666,2.463054 7.487685,4.137932 11.231527,4.137932 7.881774,0 12.118234,-4.137932 12.118234,-9.556652 0,-5.418719 -4.23646,-7.684729 -8.078823,-8.965517 z M 42.167398,11.822661 c -7.192119,0 -14.088671,6.009852 -13.891626,15.467982 0,9.753694 6.403942,15.46798 14.876848,15.46798 3.546797,0 7.487685,-1.280789 10.541872,-3.349754 l -2.955666,-5.221675 c -2.167486,1.280788 -4.236452,1.871921 -6.40394,1.871921 -3.940887,0 -6.995075,-1.871921 -7.783252,-6.403941 h 17.832513 c 0.09852,-0.689655 0.295567,-2.068966 0.295567,-3.64532 0.09852,-7.980296 -4.236454,-14.187193 -12.512316,-14.187193 z m -5.615764,12.413794 c 0.591133,-3.940888 2.955665,-5.812808 5.714287,-5.812808 3.546797,0 4.926107,2.463053 4.926107,5.812808 H 36.551634 z"
     id="path5037" />
</svg>
