<?xml version="1.0" encoding="UTF-8" standalone="no"?>
<!-- Created with Inkscape (http://www.inkscape.org/) -->

<svg
   xmlns:dc="http://purl.org/dc/elements/1.1/"
   xmlns:cc="http://creativecommons.org/ns#"
   xmlns:rdf="http://www.w3.org/1999/02/22-rdf-syntax-ns#"
   xmlns:svg="http://www.w3.org/2000/svg"
   xmlns="http://www.w3.org/2000/svg"
   version="1.1"
   width="70.000244"
   height="70"
   viewBox="-0.866 -0.866 70.000244 70"
   id="svg3881"
   xml:space="preserve"><metadata
     id="metadata3891"><rdf:RDF><cc:Work
         rdf:about=""><dc:format>image/svg+xml</dc:format><dc:type
           rdf:resource="http://purl.org/dc/dcmitype/StillImage" /><dc:title></dc:title></cc:Work></rdf:RDF></metadata><defs
     id="defs3883" /><path
     d="M 69.134247,34.13449 C 69.134247,53.46362 53.463862,69.134 34.133753,69.134 14.803644,69.134 -0.866,53.46386 -0.866,34.13449 -0.866,14.80389 14.803397,-0.866 34.133506,-0.866 c 19.330109,0 35.000741,15.66989 35.000741,35.00049 z"
     id="path3885"
     style="fill:#dd4814" /><path
     d="m 10.334435,29.4618 c -2.5813158,0 -4.6729394,2.09163 -4.6729394,4.67294 0,2.58033 2.0916236,4.6722 4.6729394,4.6722 2.580327,0 4.672198,-2.09187 4.672198,-4.6722 0,-2.58156 -2.091624,-4.67294 -4.672198,-4.67294 z m 33.363989,21.23776 c -2.235098,1.29029 -3.000134,4.14695 -1.71034,6.38106 1.290534,2.2351 4.146946,3.00063 6.382045,1.71034 2.234358,-1.29004 2.999887,-4.1467 1.7096,-6.38155 -1.290041,-2.23411 -4.146947,-2.99989 -6.381305,-1.70985 z M 20.484365,34.134 c 0,-4.61812 2.29486,-8.69715 5.804194,-11.1671 l -3.416236,-5.72245 c -4.089408,2.7322 -7.131276,6.90902 -8.394893,11.801 1.47599,1.20312 2.419072,3.0352 2.419072,5.08904 0,2.05335 -0.943082,3.88544 -2.419319,5.0883 1.26337,4.89248 4.305485,9.0693 8.394893,11.80126 L 26.288559,45.3011 C 22.779225,42.83165 20.484365,38.75286 20.484365,34.134 z M 34.134247,20.48412 c 7.131029,0 12.980414,5.46761 13.593578,12.43936 l 6.659611,-0.0973 c -0.327696,-5.14732 -2.57613,-9.76964 -6.03163,-13.16686 -1.776522,0.6712 -3.828881,0.56946 -5.602687,-0.45487 -1.776028,-1.02532 -2.89049,-2.75492 -3.195714,-4.63195 -1.726639,-0.47783 -3.543907,-0.73836 -5.422911,-0.73836 -3.231522,0 -6.284502,0.75861 -8.996451,2.10199 l 3.246338,5.81803 c 1.747629,-0.81319 3.695037,-1.27004 5.749866,-1.27004 z m 0,27.30001 c -2.055076,0 -4.002237,-0.45685 -5.750113,-1.27004 l -3.246832,5.81852 c 2.712196,1.34288 5.765423,2.10175 8.996945,2.10175 1.879004,0 3.696272,-0.26053 5.423158,-0.73837 0.305224,-1.87703 1.419933,-3.60663 3.196208,-4.63269 1.773806,-1.02383 3.826165,-1.12557 5.602687,-0.45413 3.455253,-3.39747 5.703687,-8.01978 6.030889,-13.1671 l -6.659611,-0.0973 c -0.61267,6.97274 -6.462302,12.43936 -13.593331,12.43936 z m 9.563437,-30.21594 c 2.234851,1.29078 5.091757,0.52501 6.381551,-1.7091 1.290534,-2.2351 0.525498,-5.09176 -1.7096,-6.3823 -2.234605,-1.29004 -5.091264,-0.52451 -6.381798,1.71059 -1.290041,2.23411 -0.524511,5.09102 1.709847,6.38081 z"
     id="path3887"
     style="fill:#ffffff" /></svg>